<svg id="Layer_1" data-name="Layer 1" xmlns="http://www.w3.org/2000/svg" viewBox="0 0 500 300"><defs><style>.cls-1{fill:#333132;}.cls-2{fill:#3981c3;}</style></defs><title>Artboard 1</title><path class="cls-1" d="M175.45,166.62v-17.7l-6.1,13.55H164l-6.1-13.55v17.7h-10v-35h10.92l7.85,17.2,7.9-17.2h10.87v35Z"/><path class="cls-1" d="M236.45,150.13v16.49h-10v-35h7.79l14.62,18.51V131.62h10v35h-8Z"/><path class="cls-1" d="M293.86,166.62v-35h16.72a11.09,11.09,0,0,1,4.92,1.1,12.58,12.58,0,0,1,3.87,2.89,13.25,13.25,0,0,1,2.54,4.07,12.16,12.16,0,0,1,.93,4.61,13.12,13.12,0,0,1-1.39,6,12.09,12.09,0,0,1-3.84,4.51l7.69,11.87H314L307.6,157h-3.74v9.66Zm10-18.42h6.31a2.21,2.21,0,0,0,1.72-1,4.61,4.61,0,0,0,.79-2.88,4.18,4.18,0,0,0-.92-2.91,2.6,2.6,0,0,0-1.85-1h-6.05Z"/><path class="cls-1" d="M330.3,166.62v-35h10v35Z"/><polygon class="cls-1" points="288.86 140.62 288.86 131.62 263.86 131.62 263.86 131.62 263.86 141.62 263.86 156.62 263.86 166.62 273.86 166.62 288.86 166.62 288.86 157.62 273.86 157.62 273.86 153.12 288.86 153.12 288.86 145.12 273.86 145.12 273.86 140.62 288.86 140.62"/><path class="cls-1" d="M361.71,157.73a5.43,5.43,0,0,0,3-.78,6,6,0,0,0,2-2,9.2,9.2,0,0,0,1.13-2.91,16.05,16.05,0,0,0,.36-3.44v-17h10v17a25.16,25.16,0,0,1-1,7.12,15.44,15.44,0,0,1-3,5.73,14.36,14.36,0,0,1-5.15,3.8,17.72,17.72,0,0,1-7.31,1.39,17.29,17.29,0,0,1-7.46-1.47,14.13,14.13,0,0,1-5.1-3.93,15.73,15.73,0,0,1-2.93-5.73,25.51,25.51,0,0,1-.92-6.91v-17h10v17a16.47,16.47,0,0,0,.36,3.47,9.23,9.23,0,0,0,1.13,2.93,6,6,0,0,0,2,2A5.48,5.48,0,0,0,361.71,157.73Z"/><path class="cls-1" d="M410.71,166.62v-17.7l-6.1,13.55h-5.34l-6.1-13.55v17.7h-10v-35h10.92l7.85,17.2,7.9-17.2h10.87v35Z"/><path class="cls-1" d="M206,141.62a7.5,7.5,0,1,1-7.5,7.5,7.51,7.51,0,0,1,7.5-7.5m0-10a17.5,17.5,0,1,0,17.5,17.5,17.49,17.49,0,0,0-17.5-17.5Z"/><path class="cls-1" d="M108.69,170.92,95.05,157.27a11.43,11.43,0,0,1-3.41-8.15h0a11.45,11.45,0,0,1,3.22-8h0l.18-.18h0l3.81-3.81h0l-5.46-5.45a10.78,10.78,0,0,1-3.18-7.76l-6.13,6.13a26.77,26.77,0,0,0-7.94,19h0v0h0v0h0a26.81,26.81,0,0,0,7.94,19l13.67,13.67a7.74,7.74,0,0,0,11-10.94Z"/><path class="cls-2" d="M114.89,149.11a11.5,11.5,0,0,1-3.21,8h0l-4,4h0l5.45,5.45a10.76,10.76,0,0,1,3.19,7.77l6.13-6.13a26.8,26.8,0,0,0,7.93-18.92h0v-.14h0v-.12h0a26.71,26.71,0,0,0-8-18.89l-13.68-13.68A7.73,7.73,0,0,0,97.82,127.3l5.45,5.45,3.42,3.41,4.78,4.78a11.38,11.38,0,0,1,3.42,8.1Z"/></svg>